{
    "asset" : {
        "generator" : "Khronos glTF Blender I/O v0.9.4",
        "version" : "2.0"
    },
    "scene" : 0,
    "scenes" : [
        {
            "name" : "Scene",
            "nodes" : [
                0,
                1,
                2,
                3,
                4,
                5,
                6,
                7,
                8,
                9,
                10
            ]
        }
    ],
    "nodes" : [
        {
            "mesh" : 0,
            "name" : "Plane",
            "rotation" : [
                0,
                -0.7071093916893005,
                0,
                0.7071042060852051
            ],
            "scale" : [
                1,
                1,
                5.957625389099121
            ],
            "translation" : [
                -0.02394723892211914,
                0,
                -0.4957224130630493
            ]
        },
        {
            "mesh" : 1,
            "name" : "Circle",
            "scale" : [
                0.5564806461334229,
                0.48730188608169556,
                0.5564806461334229
            ],
            "translation" : [
                0,
                0,
                0.01710045337677002
            ]
        },
        {
            "mesh" : 2,
            "name" : "wall",
            "rotation" : [
                0,
                -0.7071093916893005,
                0,
                0.7071042060852051
            ],
            "scale" : [
                1,
                1,
                4
            ],
            "translation" : [
                -0.023939847946166992,
                0,
                -1.4957224130630493
            ]
        },
        {
            "mesh" : 3,
            "name" : "wall.001",
            "rotation" : [
                0,
                -0.7071093916893005,
                0,
                0.7071042060852051
            ],
            "scale" : [
                1,
                1,
                4
            ],
            "translation" : [
                -4.023940086364746,
                0,
                -1.4957224130630493
            ]
        },
        {
            "mesh" : 4,
            "name" : "wall.002",
            "rotation" : [
                0,
                -0.7071093916893005,
                0,
                0.7071042060852051
            ],
            "scale" : [
                1,
                1,
                4
            ],
            "translation" : [
                3.976060152053833,
                0,
                -1.4957224130630493
            ]
        },
        {
            "mesh" : 5,
            "name" : "wall.003",
            "rotation" : [
                0,
                -3.635883331298828e-06,
                0,
                1
            ],
            "scale" : [
                1,
                1,
                4
            ],
            "translation" : [
                -2.023939847946167,
                0,
                -1.4957224130630493
            ]
        },
        {
            "mesh" : 6,
            "name" : "wall.004",
            "rotation" : [
                0,
                -1,
                0,
                -3.592171879063244e-06
            ],
            "scale" : [
                1,
                1,
                4
            ],
            "translation" : [
                1.976060152053833,
                0,
                -1.4957224130630493
            ]
        },
        {
            "mesh" : 7,
            "name" : "Plane.001",
            "rotation" : [
                0.7071067690849304,
                0,
                0,
                0.7071067690849304
            ],
            "scale" : [
                16.74953842163086,
                16.74953842163086,
                16.74953842163086
            ],
            "translation" : [
                0,
                0,
                -13.908041000366211
            ]
        },
        {
            "mesh" : 8,
            "name" : "Plane.002",
            "scale" : [
                8,
                8,
                8
            ],
            "translation" : [
                -0.42044496536254883,
                0,
                -9.405560493469238
            ]
        },
        {
            "mesh" : 9,
            "name" : "Cylinder",
            "scale" : [
                0.06591774523258209,
                0.06591774523258209,
                0.06591774523258209
            ],
            "translation" : [
                -0.2799304127693176,
                -0.056743815541267395,
                -8.993651390075684
            ]
        },
        {
            "mesh" : 10,
            "name" : "Cylinder.001",
            "rotation" : [
                -0.028766728937625885,
                0.4230363965034485,
                0.0614432618021965,
                0.9035692811012268
            ],
            "scale" : [
                0.08523579686880112,
                0.08523579686880112,
                0.08523579686880112
            ],
            "translation" : [
                1.1214256286621094,
                -0.056743815541267395,
                -8.993651390075684
            ]
        }
    ],
    "materials" : [
        {
            "name" : "floor",
            "pbrMetallicRoughness" : {
                "baseColorTexture" : {
                    "index" : 0,
                    "texCoord" : 0
                },
                "metallicFactor" : 0,
                "roughnessFactor" : 0.5
            }
        },
        {
            "name" : "Colors",
            "pbrMetallicRoughness" : {
                "baseColorTexture" : {
                    "index" : 1,
                    "texCoord" : 0
                },
                "metallicFactor" : 0,
                "roughnessFactor" : 0.5
            }
        }
    ],
    "meshes" : [
        {
            "name" : "Plane.001",
            "primitives" : [
                {
                    "attributes" : {
                        "POSITION" : 0,
                        "NORMAL" : 1,
                        "TEXCOORD_0" : 2
                    },
                    "indices" : 3,
                    "material" : 0
                }
            ]
        },
        {
            "name" : "Circle",
            "primitives" : [
                {
                    "attributes" : {
                        "POSITION" : 4,
                        "NORMAL" : 5,
                        "TEXCOORD_0" : 6
                    },
                    "indices" : 7,
                    "material" : 1
                }
            ]
        },
        {
            "name" : "Cube.002",
            "primitives" : [
                {
                    "attributes" : {
                        "POSITION" : 8,
                        "NORMAL" : 9,
                        "TEXCOORD_0" : 10,
                        "TEXCOORD_1" : 11
                    },
                    "indices" : 12,
                    "material" : 1
                }
            ]
        },
        {
            "name" : "Cube.000",
            "primitives" : [
                {
                    "attributes" : {
                        "POSITION" : 13,
                        "NORMAL" : 14,
                        "TEXCOORD_0" : 15
                    },
                    "indices" : 16,
                    "material" : 1
                }
            ]
        },
        {
            "name" : "Cube.001",
            "primitives" : [
                {
                    "attributes" : {
                        "POSITION" : 17,
                        "NORMAL" : 18,
                        "TEXCOORD_0" : 19
                    },
                    "indices" : 16,
                    "material" : 1
                }
            ]
        },
        {
            "name" : "Cube.003",
            "primitives" : [
                {
                    "attributes" : {
                        "POSITION" : 20,
                        "NORMAL" : 21,
                        "TEXCOORD_0" : 22
                    },
                    "indices" : 16,
                    "material" : 1
                }
            ]
        },
        {
            "name" : "Cube.004",
            "primitives" : [
                {
                    "attributes" : {
                        "POSITION" : 23,
                        "NORMAL" : 24,
                        "TEXCOORD_0" : 25
                    },
                    "indices" : 16,
                    "material" : 1
                }
            ]
        },
        {
            "name" : "Plane",
            "primitives" : [
                {
                    "attributes" : {
                        "POSITION" : 26,
                        "NORMAL" : 27,
                        "TEXCOORD_0" : 28
                    },
                    "indices" : 29,
                    "material" : 1
                }
            ]
        },
        {
            "name" : "Plane.002",
            "primitives" : [
                {
                    "attributes" : {
                        "POSITION" : 30,
                        "NORMAL" : 31,
                        "TEXCOORD_0" : 32
                    },
                    "indices" : 29
                }
            ]
        },
        {
            "name" : "Cylinder",
            "primitives" : [
                {
                    "attributes" : {
                        "POSITION" : 33,
                        "NORMAL" : 34,
                        "TEXCOORD_0" : 35
                    },
                    "indices" : 36,
                    "material" : 1
                }
            ]
        },
        {
            "name" : "Cylinder.001",
            "primitives" : [
                {
                    "attributes" : {
                        "POSITION" : 37,
                        "NORMAL" : 38,
                        "TEXCOORD_0" : 39
                    },
                    "indices" : 36,
                    "material" : 1
                }
            ]
        }
    ],
    "textures" : [
        {
            "source" : 0
        },
        {
            "source" : 1
        }
    ],
    "images" : [
        {
            "bufferView" : 4,
            "mimeType" : "image/jpeg",
            "name" : "floor"
        },
        {
            "bufferView" : 9,
            "mimeType" : "image/jpeg",
            "name" : "colors"
        }
    ],
    "accessors" : [
        {
            "bufferView" : 0,
            "componentType" : 5126,
            "count" : 4,
            "max" : [
                4.014190673828125,
                0,
                1
            ],
            "min" : [
                -1,
                0,
                -1.0000063180923462
            ],
            "type" : "VEC3"
        },
        {
            "bufferView" : 1,
            "componentType" : 5126,
            "count" : 4,
            "type" : "VEC3"
        },
        {
            "bufferView" : 2,
            "componentType" : 5126,
            "count" : 4,
            "type" : "VEC2"
        },
        {
            "bufferView" : 3,
            "componentType" : 5123,
            "count" : 6,
            "type" : "SCALAR"
        },
        {
            "bufferView" : 5,
            "componentType" : 5126,
            "count" : 384,
            "max" : [
                0.5,
                0.024445757269859314,
                0.5
            ],
            "min" : [
                -0.5,
                0,
                -0.5
            ],
            "type" : "VEC3"
        },
        {
            "bufferView" : 6,
            "componentType" : 5126,
            "count" : 384,
            "type" : "VEC3"
        },
        {
            "bufferView" : 7,
            "componentType" : 5126,
            "count" : 384,
            "type" : "VEC2"
        },
        {
            "bufferView" : 8,
            "componentType" : 5123,
            "count" : 756,
            "type" : "SCALAR"
        },
        {
            "bufferView" : 10,
            "componentType" : 5126,
            "count" : 326,
            "max" : [
                0.11032068729400635,
                3.382978916168213,
                0.5
            ],
            "min" : [
                -0.09935455769300461,
                -0.05000000074505806,
                -0.5
            ],
            "type" : "VEC3"
        },
        {
            "bufferView" : 11,
            "componentType" : 5126,
            "count" : 326,
            "type" : "VEC3"
        },
        {
            "bufferView" : 12,
            "componentType" : 5126,
            "count" : 326,
            "type" : "VEC2"
        },
        {
            "bufferView" : 13,
            "componentType" : 5126,
            "count" : 326,
            "type" : "VEC2"
        },
        {
            "bufferView" : 14,
            "componentType" : 5123,
            "count" : 738,
            "type" : "SCALAR"
        },
        {
            "bufferView" : 15,
            "componentType" : 5126,
            "count" : 61,
            "max" : [
                0.10656116902828217,
                2.049999952316284,
                0.5
            ],
            "min" : [
                -0.05000000074505806,
                -0.05000000074505806,
                -0.5
            ],
            "type" : "VEC3"
        },
        {
            "bufferView" : 16,
            "componentType" : 5126,
            "count" : 61,
            "type" : "VEC3"
        },
        {
            "bufferView" : 17,
            "componentType" : 5126,
            "count" : 61,
            "type" : "VEC2"
        },
        {
            "bufferView" : 18,
            "componentType" : 5123,
            "count" : 108,
            "type" : "SCALAR"
        },
        {
            "bufferView" : 19,
            "componentType" : 5126,
            "count" : 61,
            "max" : [
                0.10656116902828217,
                2.049999952316284,
                0.5
            ],
            "min" : [
                -0.05000000074505806,
                -0.05000000074505806,
                -0.5
            ],
            "type" : "VEC3"
        },
        {
            "bufferView" : 20,
            "componentType" : 5126,
            "count" : 61,
            "type" : "VEC3"
        },
        {
            "bufferView" : 21,
            "componentType" : 5126,
            "count" : 61,
            "type" : "VEC2"
        },
        {
            "bufferView" : 22,
            "componentType" : 5126,
            "count" : 61,
            "max" : [
                0.10656116902828217,
                2.049999952316284,
                0.5
            ],
            "min" : [
                -0.05000000074505806,
                -0.05000000074505806,
                -0.5
            ],
            "type" : "VEC3"
        },
        {
            "bufferView" : 23,
            "componentType" : 5126,
            "count" : 61,
            "type" : "VEC3"
        },
        {
            "bufferView" : 24,
            "componentType" : 5126,
            "count" : 61,
            "type" : "VEC2"
        },
        {
            "bufferView" : 25,
            "componentType" : 5126,
            "count" : 61,
            "max" : [
                0.10656116902828217,
                2.049999952316284,
                0.5
            ],
            "min" : [
                -0.05000000074505806,
                -0.05000000074505806,
                -0.5
            ],
            "type" : "VEC3"
        },
        {
            "bufferView" : 26,
            "componentType" : 5126,
            "count" : 61,
            "type" : "VEC3"
        },
        {
            "bufferView" : 27,
            "componentType" : 5126,
            "count" : 61,
            "type" : "VEC2"
        },
        {
            "bufferView" : 28,
            "componentType" : 5126,
            "count" : 4,
            "max" : [
                1,
                0,
                1
            ],
            "min" : [
                -1,
                0,
                -1
            ],
            "type" : "VEC3"
        },
        {
            "bufferView" : 29,
            "componentType" : 5126,
            "count" : 4,
            "type" : "VEC3"
        },
        {
            "bufferView" : 30,
            "componentType" : 5126,
            "count" : 4,
            "type" : "VEC2"
        },
        {
            "bufferView" : 31,
            "componentType" : 5123,
            "count" : 6,
            "type" : "SCALAR"
        },
        {
            "bufferView" : 32,
            "componentType" : 5126,
            "count" : 4,
            "max" : [
                1,
                0,
                1
            ],
            "min" : [
                -1,
                0,
                -1
            ],
            "type" : "VEC3"
        },
        {
            "bufferView" : 33,
            "componentType" : 5126,
            "count" : 4,
            "type" : "VEC3"
        },
        {
            "bufferView" : 34,
            "componentType" : 5126,
            "count" : 4,
            "type" : "VEC2"
        },
        {
            "bufferView" : 35,
            "componentType" : 5126,
            "count" : 348,
            "max" : [
                7.656162261962891,
                40.08356857299805,
                9.741522789001465
            ],
            "min" : [
                -8.560518264770508,
                -1,
                -7.309678077697754
            ],
            "type" : "VEC3"
        },
        {
            "bufferView" : 36,
            "componentType" : 5126,
            "count" : 348,
            "type" : "VEC3"
        },
        {
            "bufferView" : 37,
            "componentType" : 5126,
            "count" : 348,
            "type" : "VEC2"
        },
        {
            "bufferView" : 38,
            "componentType" : 5123,
            "count" : 408,
            "type" : "SCALAR"
        },
        {
            "bufferView" : 39,
            "componentType" : 5126,
            "count" : 348,
            "max" : [
                7.656162261962891,
                40.08356857299805,
                9.741522789001465
            ],
            "min" : [
                -8.560518264770508,
                -1,
                -7.309678077697754
            ],
            "type" : "VEC3"
        },
        {
            "bufferView" : 40,
            "componentType" : 5126,
            "count" : 348,
            "type" : "VEC3"
        },
        {
            "bufferView" : 41,
            "componentType" : 5126,
            "count" : 348,
            "type" : "VEC2"
        }
    ],
    "bufferViews" : [
        {
            "buffer" : 0,
            "byteLength" : 48,
            "byteOffset" : 0
        },
        {
            "buffer" : 0,
            "byteLength" : 48,
            "byteOffset" : 48
        },
        {
            "buffer" : 0,
            "byteLength" : 32,
            "byteOffset" : 96
        },
        {
            "buffer" : 0,
            "byteLength" : 12,
            "byteOffset" : 128
        },
        {
            "buffer" : 0,
            "byteLength" : 50718,
            "byteOffset" : 140
        },
        {
            "buffer" : 0,
            "byteLength" : 4608,
            "byteOffset" : 50860
        },
        {
            "buffer" : 0,
            "byteLength" : 4608,
            "byteOffset" : 55468
        },
        {
            "buffer" : 0,
            "byteLength" : 3072,
            "byteOffset" : 60076
        },
        {
            "buffer" : 0,
            "byteLength" : 1512,
            "byteOffset" : 63148
        },
        {
            "buffer" : 0,
            "byteLength" : 10189,
            "byteOffset" : 64660
        },
        {
            "buffer" : 0,
            "byteLength" : 3912,
            "byteOffset" : 74852
        },
        {
            "buffer" : 0,
            "byteLength" : 3912,
            "byteOffset" : 78764
        },
        {
            "buffer" : 0,
            "byteLength" : 2608,
            "byteOffset" : 82676
        },
        {
            "buffer" : 0,
            "byteLength" : 2608,
            "byteOffset" : 85284
        },
        {
            "buffer" : 0,
            "byteLength" : 1476,
            "byteOffset" : 87892
        },
        {
            "buffer" : 0,
            "byteLength" : 732,
            "byteOffset" : 89368
        },
        {
            "buffer" : 0,
            "byteLength" : 732,
            "byteOffset" : 90100
        },
        {
            "buffer" : 0,
            "byteLength" : 488,
            "byteOffset" : 90832
        },
        {
            "buffer" : 0,
            "byteLength" : 216,
            "byteOffset" : 91320
        },
        {
            "buffer" : 0,
            "byteLength" : 732,
            "byteOffset" : 91536
        },
        {
            "buffer" : 0,
            "byteLength" : 732,
            "byteOffset" : 92268
        },
        {
            "buffer" : 0,
            "byteLength" : 488,
            "byteOffset" : 93000
        },
        {
            "buffer" : 0,
            "byteLength" : 732,
            "byteOffset" : 93488
        },
        {
            "buffer" : 0,
            "byteLength" : 732,
            "byteOffset" : 94220
        },
        {
            "buffer" : 0,
            "byteLength" : 488,
            "byteOffset" : 94952
        },
        {
            "buffer" : 0,
            "byteLength" : 732,
            "byteOffset" : 95440
        },
        {
            "buffer" : 0,
            "byteLength" : 732,
            "byteOffset" : 96172
        },
        {
            "buffer" : 0,
            "byteLength" : 488,
            "byteOffset" : 96904
        },
        {
            "buffer" : 0,
            "byteLength" : 48,
            "byteOffset" : 97392
        },
        {
            "buffer" : 0,
            "byteLength" : 48,
            "byteOffset" : 97440
        },
        {
            "buffer" : 0,
            "byteLength" : 32,
            "byteOffset" : 97488
        },
        {
            "buffer" : 0,
            "byteLength" : 12,
            "byteOffset" : 97520
        },
        {
            "buffer" : 0,
            "byteLength" : 48,
            "byteOffset" : 97532
        },
        {
            "buffer" : 0,
            "byteLength" : 48,
            "byteOffset" : 97580
        },
        {
            "buffer" : 0,
            "byteLength" : 32,
            "byteOffset" : 97628
        },
        {
            "buffer" : 0,
            "byteLength" : 4176,
            "byteOffset" : 97660
        },
        {
            "buffer" : 0,
            "byteLength" : 4176,
            "byteOffset" : 101836
        },
        {
            "buffer" : 0,
            "byteLength" : 2784,
            "byteOffset" : 106012
        },
        {
            "buffer" : 0,
            "byteLength" : 816,
            "byteOffset" : 108796
        },
        {
            "buffer" : 0,
            "byteLength" : 4176,
            "byteOffset" : 109612
        },
        {
            "buffer" : 0,
            "byteLength" : 4176,
            "byteOffset" : 113788
        },
        {
            "buffer" : 0,
            "byteLength" : 2784,
            "byteOffset" : 117964
        }
    ],
    "buffers" : [
        {
            "byteLength" : 120748,
            "uri" : "data:application/octet-stream;base64,"
        }
    ]
}
